<mxfile host="app.diagrams.net" modified="2023-11-27T08:38:56.841Z" agent="Mozilla/5.0 (Windows NT 10.0; Win64; x64) AppleWebKit/537.36 (KHTML, like Gecko) Chrome/119.0.0.0 Safari/537.36" etag="zsgG1OAiwi_uH40P8MWz" version="22.1.4" type="github">
  <diagram name="Page-1" id="v4D-5TRAHm31pBRaTfXf">
    <mxGraphModel dx="2293" dy="1178" grid="1" gridSize="10" guides="1" tooltips="1" connect="1" arrows="1" fold="1" page="1" pageScale="1" pageWidth="900" pageHeight="1200" math="0" shadow="0">
      <root>
        <mxCell id="0" />
        <mxCell id="1" parent="0" />
        <mxCell id="aXvtKXnZhHnOBjw73lqy-2" style="edgeStyle=orthogonalEdgeStyle;rounded=0;orthogonalLoop=1;jettySize=auto;html=1;entryX=0;entryY=0.5;entryDx=0;entryDy=0;strokeWidth=2;" parent="1" source="aXvtKXnZhHnOBjw73lqy-3" target="aXvtKXnZhHnOBjw73lqy-5" edge="1">
          <mxGeometry relative="1" as="geometry" />
        </mxCell>
        <mxCell id="aXvtKXnZhHnOBjw73lqy-3" value="&lt;font style=&quot;font-size: 24px;&quot;&gt;&lt;b style=&quot;&quot;&gt;A&lt;/b&gt;&lt;/font&gt;" style="ellipse;whiteSpace=wrap;html=1;aspect=fixed;" parent="1" vertex="1">
          <mxGeometry x="200" y="560" width="80" height="80" as="geometry" />
        </mxCell>
        <mxCell id="aXvtKXnZhHnOBjw73lqy-4" style="edgeStyle=orthogonalEdgeStyle;rounded=0;orthogonalLoop=1;jettySize=auto;html=1;entryX=0;entryY=0.5;entryDx=0;entryDy=0;strokeWidth=2;" parent="1" source="aXvtKXnZhHnOBjw73lqy-5" target="aXvtKXnZhHnOBjw73lqy-7" edge="1">
          <mxGeometry relative="1" as="geometry" />
        </mxCell>
        <mxCell id="aXvtKXnZhHnOBjw73lqy-5" value="&lt;font style=&quot;font-size: 24px;&quot;&gt;&lt;b style=&quot;&quot;&gt;L&lt;/b&gt;&lt;/font&gt;" style="ellipse;whiteSpace=wrap;html=1;aspect=fixed;" parent="1" vertex="1">
          <mxGeometry x="360" y="560" width="80" height="80" as="geometry" />
        </mxCell>
        <mxCell id="aXvtKXnZhHnOBjw73lqy-6" style="edgeStyle=orthogonalEdgeStyle;rounded=0;orthogonalLoop=1;jettySize=auto;html=1;entryX=0;entryY=0.5;entryDx=0;entryDy=0;strokeWidth=2;" parent="1" source="aXvtKXnZhHnOBjw73lqy-7" target="aXvtKXnZhHnOBjw73lqy-8" edge="1">
          <mxGeometry relative="1" as="geometry" />
        </mxCell>
        <mxCell id="aXvtKXnZhHnOBjw73lqy-7" value="&lt;font style=&quot;font-size: 24px;&quot;&gt;&lt;b style=&quot;&quot;&gt;G&lt;/b&gt;&lt;/font&gt;" style="ellipse;whiteSpace=wrap;html=1;aspect=fixed;" parent="1" vertex="1">
          <mxGeometry x="520" y="560" width="80" height="80" as="geometry" />
        </mxCell>
        <mxCell id="aXvtKXnZhHnOBjw73lqy-41" style="edgeStyle=orthogonalEdgeStyle;rounded=0;orthogonalLoop=1;jettySize=auto;html=1;strokeWidth=2;" parent="1" source="aXvtKXnZhHnOBjw73lqy-8" target="aXvtKXnZhHnOBjw73lqy-24" edge="1">
          <mxGeometry relative="1" as="geometry" />
        </mxCell>
        <mxCell id="aXvtKXnZhHnOBjw73lqy-8" value="&lt;font style=&quot;font-size: 24px;&quot;&gt;&lt;b style=&quot;&quot;&gt;O&lt;/b&gt;&lt;/font&gt;" style="ellipse;whiteSpace=wrap;html=1;aspect=fixed;" parent="1" vertex="1">
          <mxGeometry x="680" y="560" width="80" height="80" as="geometry" />
        </mxCell>
        <mxCell id="aXvtKXnZhHnOBjw73lqy-10" style="edgeStyle=orthogonalEdgeStyle;rounded=0;orthogonalLoop=1;jettySize=auto;html=1;strokeWidth=2;" parent="1" source="aXvtKXnZhHnOBjw73lqy-11" target="aXvtKXnZhHnOBjw73lqy-3" edge="1">
          <mxGeometry relative="1" as="geometry" />
        </mxCell>
        <mxCell id="aXvtKXnZhHnOBjw73lqy-11" value="" style="whiteSpace=wrap;html=1;aspect=fixed;" parent="1" vertex="1">
          <mxGeometry x="80" y="580" width="40" height="40" as="geometry" />
        </mxCell>
        <mxCell id="aXvtKXnZhHnOBjw73lqy-12" value="" style="whiteSpace=wrap;html=1;aspect=fixed;" parent="1" vertex="1">
          <mxGeometry x="1640" y="580" width="40" height="40" as="geometry" />
        </mxCell>
        <mxCell id="aXvtKXnZhHnOBjw73lqy-13" value="" style="curved=1;endArrow=classic;html=1;rounded=0;entryX=0.5;entryY=0;entryDx=0;entryDy=0;strokeWidth=2;" parent="1" target="aXvtKXnZhHnOBjw73lqy-12" edge="1">
          <mxGeometry width="50" height="50" relative="1" as="geometry">
            <mxPoint x="1680" y="600" as="sourcePoint" />
            <mxPoint x="1730" y="550" as="targetPoint" />
            <Array as="points">
              <mxPoint x="1730" y="600" />
              <mxPoint x="1720" y="570" />
              <mxPoint x="1680" y="550" />
            </Array>
          </mxGeometry>
        </mxCell>
        <mxCell id="aXvtKXnZhHnOBjw73lqy-14" value="&lt;b style=&quot;border-color: var(--border-color); font-size: 18px;&quot;&gt;Z&lt;/b&gt;" style="text;html=1;align=center;verticalAlign=middle;resizable=0;points=[];autosize=1;strokeColor=none;fillColor=none;" parent="1" vertex="1">
          <mxGeometry x="1685" y="600" width="30" height="40" as="geometry" />
        </mxCell>
        <mxCell id="aXvtKXnZhHnOBjw73lqy-23" style="edgeStyle=orthogonalEdgeStyle;rounded=0;orthogonalLoop=1;jettySize=auto;html=1;entryX=0;entryY=0.5;entryDx=0;entryDy=0;strokeWidth=2;" parent="1" source="aXvtKXnZhHnOBjw73lqy-24" target="aXvtKXnZhHnOBjw73lqy-26" edge="1">
          <mxGeometry relative="1" as="geometry" />
        </mxCell>
        <mxCell id="aXvtKXnZhHnOBjw73lqy-24" value="&lt;font style=&quot;font-size: 24px;&quot;&gt;&lt;b style=&quot;&quot;&gt;R&lt;/b&gt;&lt;/font&gt;" style="ellipse;whiteSpace=wrap;html=1;aspect=fixed;" parent="1" vertex="1">
          <mxGeometry x="840" y="560" width="80" height="80" as="geometry" />
        </mxCell>
        <mxCell id="aXvtKXnZhHnOBjw73lqy-26" value="&lt;font style=&quot;font-size: 24px;&quot;&gt;&lt;b style=&quot;&quot;&gt;I&lt;/b&gt;&lt;/font&gt;" style="ellipse;whiteSpace=wrap;html=1;aspect=fixed;" parent="1" vertex="1">
          <mxGeometry x="1000" y="560" width="80" height="80" as="geometry" />
        </mxCell>
        <mxCell id="aXvtKXnZhHnOBjw73lqy-27" style="edgeStyle=orthogonalEdgeStyle;rounded=0;orthogonalLoop=1;jettySize=auto;html=1;entryX=0;entryY=0.5;entryDx=0;entryDy=0;strokeWidth=2;" parent="1" source="aXvtKXnZhHnOBjw73lqy-28" target="aXvtKXnZhHnOBjw73lqy-30" edge="1">
          <mxGeometry relative="1" as="geometry" />
        </mxCell>
        <mxCell id="aXvtKXnZhHnOBjw73lqy-28" value="&lt;font style=&quot;font-size: 24px;&quot;&gt;&lt;b style=&quot;&quot;&gt;T&lt;/b&gt;&lt;/font&gt;" style="ellipse;whiteSpace=wrap;html=1;aspect=fixed;" parent="1" vertex="1">
          <mxGeometry x="1160" y="560" width="80" height="80" as="geometry" />
        </mxCell>
        <mxCell id="aXvtKXnZhHnOBjw73lqy-29" style="edgeStyle=orthogonalEdgeStyle;rounded=0;orthogonalLoop=1;jettySize=auto;html=1;entryX=0;entryY=0.5;entryDx=0;entryDy=0;strokeWidth=2;" parent="1" source="aXvtKXnZhHnOBjw73lqy-30" target="aXvtKXnZhHnOBjw73lqy-32" edge="1">
          <mxGeometry relative="1" as="geometry" />
        </mxCell>
        <mxCell id="aXvtKXnZhHnOBjw73lqy-30" value="&lt;font style=&quot;font-size: 24px;&quot;&gt;&lt;b style=&quot;&quot;&gt;H&lt;/b&gt;&lt;/font&gt;" style="ellipse;whiteSpace=wrap;html=1;aspect=fixed;" parent="1" vertex="1">
          <mxGeometry x="1320" y="560" width="80" height="80" as="geometry" />
        </mxCell>
        <mxCell id="aXvtKXnZhHnOBjw73lqy-32" value="&lt;font style=&quot;font-size: 24px;&quot;&gt;&lt;b style=&quot;&quot;&gt;M&lt;/b&gt;&lt;/font&gt;" style="ellipse;whiteSpace=wrap;html=1;aspect=fixed;" parent="1" vertex="1">
          <mxGeometry x="1480" y="560" width="80" height="80" as="geometry" />
        </mxCell>
        <mxCell id="FctmGeBjdttfZOiwEsxB-5" value="" style="curved=1;endArrow=classic;html=1;rounded=0;strokeWidth=2;exitX=0.5;exitY=0;exitDx=0;exitDy=0;entryX=0.5;entryY=0;entryDx=0;entryDy=0;" parent="1" source="aXvtKXnZhHnOBjw73lqy-26" target="aXvtKXnZhHnOBjw73lqy-12" edge="1">
          <mxGeometry width="50" height="50" relative="1" as="geometry">
            <mxPoint x="960" y="555" as="sourcePoint" />
            <mxPoint x="1300" y="395" as="targetPoint" />
            <Array as="points">
              <mxPoint x="1160" y="520" />
              <mxPoint x="1460" y="505" />
              <mxPoint x="1640" y="555" />
            </Array>
          </mxGeometry>
        </mxCell>
        <mxCell id="bhc98WhJWS6isb_QbgJs-5" style="edgeStyle=orthogonalEdgeStyle;rounded=0;orthogonalLoop=1;jettySize=auto;html=1;entryX=0;entryY=0.5;entryDx=0;entryDy=0;strokeWidth=2;" edge="1" parent="1" source="bhc98WhJWS6isb_QbgJs-6" target="bhc98WhJWS6isb_QbgJs-8">
          <mxGeometry relative="1" as="geometry" />
        </mxCell>
        <mxCell id="bhc98WhJWS6isb_QbgJs-6" value="&lt;font style=&quot;font-size: 24px;&quot;&gt;&lt;b style=&quot;&quot;&gt;A&lt;/b&gt;&lt;/font&gt;" style="ellipse;whiteSpace=wrap;html=1;aspect=fixed;" vertex="1" parent="1">
          <mxGeometry x="200" y="800" width="80" height="80" as="geometry" />
        </mxCell>
        <mxCell id="bhc98WhJWS6isb_QbgJs-7" style="edgeStyle=orthogonalEdgeStyle;rounded=0;orthogonalLoop=1;jettySize=auto;html=1;entryX=0;entryY=0.5;entryDx=0;entryDy=0;strokeWidth=2;" edge="1" parent="1" source="bhc98WhJWS6isb_QbgJs-8" target="bhc98WhJWS6isb_QbgJs-10">
          <mxGeometry relative="1" as="geometry" />
        </mxCell>
        <mxCell id="bhc98WhJWS6isb_QbgJs-8" value="&lt;font style=&quot;font-size: 24px;&quot;&gt;&lt;b style=&quot;&quot;&gt;L&lt;/b&gt;&lt;/font&gt;" style="ellipse;whiteSpace=wrap;html=1;aspect=fixed;" vertex="1" parent="1">
          <mxGeometry x="360" y="800" width="80" height="80" as="geometry" />
        </mxCell>
        <mxCell id="bhc98WhJWS6isb_QbgJs-9" style="edgeStyle=orthogonalEdgeStyle;rounded=0;orthogonalLoop=1;jettySize=auto;html=1;entryX=0;entryY=0.5;entryDx=0;entryDy=0;strokeWidth=2;" edge="1" parent="1" source="bhc98WhJWS6isb_QbgJs-10" target="bhc98WhJWS6isb_QbgJs-12">
          <mxGeometry relative="1" as="geometry" />
        </mxCell>
        <mxCell id="bhc98WhJWS6isb_QbgJs-10" value="&lt;font style=&quot;font-size: 24px;&quot;&gt;&lt;b style=&quot;&quot;&gt;G&lt;/b&gt;&lt;/font&gt;" style="ellipse;whiteSpace=wrap;html=1;aspect=fixed;" vertex="1" parent="1">
          <mxGeometry x="520" y="800" width="80" height="80" as="geometry" />
        </mxCell>
        <mxCell id="bhc98WhJWS6isb_QbgJs-11" style="edgeStyle=orthogonalEdgeStyle;rounded=0;orthogonalLoop=1;jettySize=auto;html=1;strokeWidth=2;" edge="1" parent="1" source="bhc98WhJWS6isb_QbgJs-12" target="bhc98WhJWS6isb_QbgJs-16">
          <mxGeometry relative="1" as="geometry" />
        </mxCell>
        <mxCell id="bhc98WhJWS6isb_QbgJs-12" value="&lt;font style=&quot;font-size: 24px;&quot;&gt;&lt;b style=&quot;&quot;&gt;O&lt;/b&gt;&lt;/font&gt;" style="ellipse;whiteSpace=wrap;html=1;aspect=fixed;" vertex="1" parent="1">
          <mxGeometry x="680" y="800" width="80" height="80" as="geometry" />
        </mxCell>
        <mxCell id="bhc98WhJWS6isb_QbgJs-13" style="edgeStyle=orthogonalEdgeStyle;rounded=0;orthogonalLoop=1;jettySize=auto;html=1;strokeWidth=2;" edge="1" parent="1" source="bhc98WhJWS6isb_QbgJs-14" target="bhc98WhJWS6isb_QbgJs-6">
          <mxGeometry relative="1" as="geometry" />
        </mxCell>
        <mxCell id="bhc98WhJWS6isb_QbgJs-14" value="" style="whiteSpace=wrap;html=1;aspect=fixed;" vertex="1" parent="1">
          <mxGeometry x="80" y="820" width="40" height="40" as="geometry" />
        </mxCell>
        <mxCell id="bhc98WhJWS6isb_QbgJs-15" style="edgeStyle=orthogonalEdgeStyle;rounded=0;orthogonalLoop=1;jettySize=auto;html=1;entryX=0;entryY=0.5;entryDx=0;entryDy=0;strokeWidth=2;" edge="1" parent="1" source="bhc98WhJWS6isb_QbgJs-16" target="bhc98WhJWS6isb_QbgJs-17">
          <mxGeometry relative="1" as="geometry" />
        </mxCell>
        <mxCell id="bhc98WhJWS6isb_QbgJs-16" value="&lt;font style=&quot;font-size: 24px;&quot;&gt;&lt;b style=&quot;&quot;&gt;R&lt;/b&gt;&lt;/font&gt;" style="ellipse;whiteSpace=wrap;html=1;aspect=fixed;" vertex="1" parent="1">
          <mxGeometry x="840" y="800" width="80" height="80" as="geometry" />
        </mxCell>
        <mxCell id="bhc98WhJWS6isb_QbgJs-21" style="edgeStyle=orthogonalEdgeStyle;rounded=0;orthogonalLoop=1;jettySize=auto;html=1;entryX=0;entryY=0.5;entryDx=0;entryDy=0;strokeWidth=2;" edge="1" parent="1" source="bhc98WhJWS6isb_QbgJs-17" target="bhc98WhJWS6isb_QbgJs-18">
          <mxGeometry relative="1" as="geometry" />
        </mxCell>
        <mxCell id="bhc98WhJWS6isb_QbgJs-17" value="&lt;font style=&quot;font-size: 24px;&quot;&gt;&lt;b style=&quot;&quot;&gt;I&lt;/b&gt;&lt;/font&gt;" style="ellipse;whiteSpace=wrap;html=1;aspect=fixed;" vertex="1" parent="1">
          <mxGeometry x="1000" y="800" width="80" height="80" as="geometry" />
        </mxCell>
        <mxCell id="bhc98WhJWS6isb_QbgJs-18" value="" style="whiteSpace=wrap;html=1;aspect=fixed;" vertex="1" parent="1">
          <mxGeometry x="1160" y="820" width="40" height="40" as="geometry" />
        </mxCell>
        <mxCell id="bhc98WhJWS6isb_QbgJs-19" value="" style="curved=1;endArrow=classic;html=1;rounded=0;entryX=0.5;entryY=0;entryDx=0;entryDy=0;strokeWidth=2;" edge="1" parent="1" target="bhc98WhJWS6isb_QbgJs-18">
          <mxGeometry width="50" height="50" relative="1" as="geometry">
            <mxPoint x="1200" y="840" as="sourcePoint" />
            <mxPoint x="1250" y="790" as="targetPoint" />
            <Array as="points">
              <mxPoint x="1250" y="840" />
              <mxPoint x="1240" y="810" />
              <mxPoint x="1200" y="790" />
            </Array>
          </mxGeometry>
        </mxCell>
        <mxCell id="bhc98WhJWS6isb_QbgJs-20" value="&lt;b style=&quot;border-color: var(--border-color); font-size: 18px;&quot;&gt;Z&lt;/b&gt;" style="text;html=1;align=center;verticalAlign=middle;resizable=0;points=[];autosize=1;strokeColor=none;fillColor=none;" vertex="1" parent="1">
          <mxGeometry x="1205" y="840" width="30" height="40" as="geometry" />
        </mxCell>
      </root>
    </mxGraphModel>
  </diagram>
</mxfile>
